<svg xmlns="http://www.w3.org/2000/svg" width="20" height="20" version="1.0" viewBox="0 0 2304 1311"><path d="M693.5 177.9c-9.8 2.4-15.5 9.5-15.5 19.4 0 15.6 17.1 25.1 30.2 16.8l4.6-2.9 3.9 2.6c6.7 4.6 9.9 7.4 8.6 7.9-3 1.1-14.4 9.4-20.1 14.8-19.7 18.4-30.7 43.3-31.9 72.5-.2 6.9-.9 13.8-1.4 15.5-3.4 11.4-2.9 22.7 1.7 38.5 1.6 5.6 2.2 9.8 1.8 11.5-.4 1.5-3.5 6.5-7 11.2-7.1 9.4-7.8 12.5-4.5 18 1.1 1.7 3.4 4.2 5 5.4l3.1 2.3v19c0 16.6.3 19.4 1.8 21.2 2.2 2.8 5.4 4.4 8.7 4.4 1.4 0 16.6-4.5 33.6-10 17.1-5.5 36.4-11.6 43-13.5 14.6-4.2 14.6-4.2 20.3-10.5l4.5-5.1 7.8 1.4c16.6 3.2 32.2 2.8 48.2-1.3 47.8-12.2 82.1-56.3 82.1-105.5 0-48.8-33.5-92.3-81.3-105.5-21.1-5.9-56.4-4.5-83.9 3.1l-7.8 2.2-3.7-2.6c-5.5-3.8-14-7.5-21.6-9.3-5.9-1.5-6.7-2-6.7-4.1 0-3-2.5-9.1-4.8-11.6-3.9-4.4-13-7.2-18.7-5.8zm12.1 11.5c2.6 2.6 3.4 4.2 3.4 7 0 12.1-12.2 16.8-20.4 7.9-4-4.3-3.7-10.4.8-14.9 2.9-2.9 4.1-3.4 8.1-3.4s5.2.5 8.1 3.4zm27.8 22.1c14 6 28.4 21.1 36.3 38.1 3.1 6.8 3.7 7.5 6 7.2 4.8-.6 5-2.8 1-11.2-4.2-8.9-8.2-15-14.8-22.7l-4.8-5.7 10.2-2.1c16.6-3.4 28.6-4.4 47.1-3.8 17.2.6 21.1 1.3 34.6 6.1 24.5 8.9 47.6 31.8 57.6 57 8.8 22.2 9.2 50.1.8 72.1-10.1 27.1-32.4 49.5-58.8 59.2-16.3 6-37 7.9-53.1 4.8-16.6-3.1-14.5-3.5-20.3 3.9-4.2 5.3-5.9 6.7-9.4 7.6-7 1.8-25.5 7.6-55.2 17.1-15.4 5-28.5 8.8-29.3 8.5-1-.4-1.3-4.6-1.3-19.9v-19.3l-5-4.9c-2.7-2.7-5-5.3-5-5.7 0-.5 2.3-3.9 5.2-7.6 5.9-7.8 8.8-13.5 8.8-17.7 0-1.7-1.4-8-3-14-3.3-12.3-3.8-20.9-1.6-29.5.7-3 1.6-11.1 1.9-18 1.3-27.4 10.6-49.7 27.5-66.7 6.4-6.4 20.2-16.3 22.7-16.3 3.4 0 9.4 11.8 10.5 20.7.9 7.4 2.9 10 6.1 8.2 4.3-2.3 3.4-12.1-2.3-23.7-2.3-4.8-5.7-9.2-12-15.5-4.9-4.9-8.8-9-8.8-9.3 0-.4 1.9.3 8.4 3.1z"/><path d="M713.5 325.4c-10.7 2.6-19.4 9.2-22 16.3-1 2.7-1.9 9.2-2.2 14.9-.7 13.1 1.1 20.1 6.2 24 3.2 2.4 4.1 2.6 10.3 2.2 9-.7 17.6-5.1 26.5-13.7 11.2-10.8 20.7-26.9 20.7-35 0-2.5-.7-3.1-4.9-5-11.3-4.8-24.3-6.2-34.6-3.7zm26.3 9.5c3.8 1.1 4.2 1.5 3.6 3.4-2.9 10-18.3 28.2-28 33-6.3 3.2-11.6 4.2-14.2 2.8-4-2.1-5.1-16.4-2.1-28.2 1.5-6 10.3-11.5 20.4-12.8 5.5-.7 13.7 0 20.3 1.8zm11.9 28.4c-.8.7-3 4.7-4.7 9-3.8 9.2-11.2 20.7-16.6 25.9-4.6 4.3-9.9 6.8-14.9 6.8-4.3 0-12.2-3.6-13.6-6.1-1.5-2.9-4.5-4.2-6.9-2.9-5.1 2.7 0 9.8 10.4 14.6 5 2.3 6.8 2.6 12.5 2.2 11.6-.9 20.2-7.7 29.6-23.8 5.7-9.7 10.8-21.7 10.1-23.5-.9-2.4-4.1-3.6-5.9-2.2z"/></svg>
